<svg xmlns="http://www.w3.org/2000/svg" viewBox="0 0 100 100" fill="none">
  <defs>
    <linearGradient id="tg-pin" x1="0.1" y1="0" x2="0.9" y2="1">
      <stop offset="0%"   stop-color="#1e3a8a"/>
      <stop offset="55%"  stop-color="#2563eb"/>
      <stop offset="100%" stop-color="#0d9488"/>
    </linearGradient>
  </defs>

  <!-- Pin / teardrop -->
  <path d="M 50 96 C 22 76, 14 62, 14 44 A 36 36 0 0 0 86 44 C 86 62, 78 76, 50 96 Z"
        fill="url(#tg-pin)"/>

  <!-- Airplane — dark navy, right wing exits the pin upper-right -->
  <g transform="translate(54,34) rotate(-45)">
    <ellipse cx="0" cy="0" rx="4" ry="14" fill="#0f172a"/>
    <path d="M -3 -1 L -28 13 L -28 18 L -3 7 Z" fill="#0f172a"/>
    <path d="M  3 -1 L  28 13 L  28 18 L  3 7 Z" fill="#0f172a"/>
    <path d="M -2 10 L -11 19 L -11 23 L -2 14 Z" fill="#0f172a"/>
    <path d="M  2 10 L  11 19 L  11 23 L  2 14 Z" fill="#0f172a"/>
  </g>

  <!-- Route: 3 waypoints connected by arc -->
  <path d="M 30 72 Q 50 64 70 72"
        stroke="rgba(255,255,255,0.8)" stroke-width="2" stroke-linecap="round"/>
  <circle cx="30" cy="72" r="3.5" fill="white"/>
  <circle cx="50" cy="64" r="3.5" fill="white"/>
  <circle cx="70" cy="72" r="3.5" fill="white"/>
</svg>
